<svg width="64" height="64" viewBox="0 0 64 64" fill="none" xmlns="http://www.w3.org/2000/svg">
<path d="M32 0C14.3269 0 0 14.3269 0 32C0 49.6731 14.3269 64 32 64C49.6731 64 64 49.6731 64 32C64 23.5131 60.6286 15.3737 54.6274 9.37258C48.6263 3.37142 40.4869 0 32 0ZM45.7326 25.1976L31.2776 40.5576C30.8 41.0648 30.0046 41.097 29.4876 40.63L20.9024 32.8863C20.5547 32.582 20.398 32.114 20.4923 31.6617C20.5866 31.2094 20.9173 30.8431 21.3576 30.7031C21.7979 30.5632 22.2795 30.6714 22.6176 30.9862L30.272 37.89L43.8682 23.4424C44.1816 23.1093 44.649 22.9687 45.0943 23.0736C45.5395 23.1785 45.895 23.513 46.0268 23.951C46.1585 24.3891 46.0461 24.8644 45.7326 25.1976Z" fill="#09B47B"/>
</svg>
